<svg height="1982" width="720" xmlns="http://www.w3.org/2000/svg">
<rect height="1982" fill="#555" width="720"></rect>
<text fill="#7f7" font-family="Courier New" font-size="12" xml:space="preserve">
<tspan x="10" y="26">└─┬ watson-developer-cloud@2.28.0 </tspan>
<tspan x="10" y="42">  ├─┬ async@2.3.0 </tspan>
<tspan x="10" y="58">  │ └── lodash@4.17.4 </tspan>
<tspan x="10" y="74">  ├─┬ buffer-from@0.1.1 </tspan>
<tspan x="10" y="90">  │ └─┬ is-array-buffer-x@1.2.1 </tspan>
<tspan x="10" y="106">  │   ├─┬ has-to-string-tag-x@1.2.0 </tspan>
<tspan x="10" y="122">  │   │ └── has-symbol-support-x@1.2.0 </tspan>
<tspan x="10" y="138">  │   ├─┬ is-object-like-x@1.2.0 </tspan>
<tspan x="10" y="154">  │   │ ├── is-function-x@1.2.0 </tspan>
<tspan x="10" y="170">  │   │ └── is-primitive@2.0.0 </tspan>
<tspan x="10" y="186">  │   └─┬ to-string-tag-x@1.2.0 </tspan>
<tspan x="10" y="202">  │     ├── lodash.isnull@3.0.0 </tspan>
<tspan x="10" y="218">  │     └── validate.io-undefined@1.0.3 </tspan>
<tspan x="10" y="234">  ├── cookie@0.3.1 </tspan>
<tspan x="10" y="250">  ├─┬ csv-stringify@1.0.4 </tspan>
<tspan x="10" y="266">  │ └── lodash.get@4.4.2 </tspan>
<tspan x="10" y="282">  ├── extend@3.0.0 </tspan>
<tspan x="10" y="298">  ├── isstream@0.1.2 </tspan>
<tspan x="10" y="314">  ├─┬ object.omit@2.0.1 </tspan>
<tspan x="10" y="330">  │ ├─┬ for-own@0.1.5 </tspan>
<tspan x="10" y="346">  │ │ └── for-in@1.0.2 </tspan>
<tspan x="10" y="362">  │ └── is-extendable@0.1.1 </tspan>
<tspan x="10" y="378">  ├─┬ object.pick@1.2.0 </tspan>
<tspan x="10" y="394">  │ └─┬ isobject@2.1.0 </tspan>
<tspan x="10" y="410">  │   └── isarray@1.0.0 </tspan>
<tspan x="10" y="426">  ├─┬ request@2.79.0 </tspan>
<tspan x="10" y="442">  │ ├── aws-sign2@0.6.0 </tspan>
<tspan x="10" y="458">  │ ├── aws4@1.6.0 </tspan>
<tspan x="10" y="474">  │ ├── caseless@0.11.0 </tspan>
<tspan x="10" y="490">  │ ├─┬ combined-stream@1.0.5 </tspan>
<tspan x="10" y="506">  │ │ └── delayed-stream@1.0.0 </tspan>
<tspan x="10" y="522">  │ ├── forever-agent@0.6.1 </tspan>
<tspan x="10" y="538">  │ ├─┬ form-data@2.1.2 </tspan>
<tspan x="10" y="554">  │ │ └── asynckit@0.4.0 </tspan>
<tspan x="10" y="570">  │ ├─┬ har-validator@2.0.6 </tspan>
<tspan x="10" y="586">  │ │ ├─┬ chalk@1.1.3 </tspan>
<tspan x="10" y="602">  │ │ │ ├── ansi-styles@2.2.1 </tspan>
<tspan x="10" y="618">  │ │ │ ├── escape-string-regexp@1.0.5 </tspan>
<tspan x="10" y="634">  │ │ │ ├─┬ has-ansi@2.0.0 </tspan>
<tspan x="10" y="650">  │ │ │ │ └── ansi-regex@2.1.1 </tspan>
<tspan x="10" y="666">  │ │ │ ├── strip-ansi@3.0.1 </tspan>
<tspan x="10" y="682">  │ │ │ └── supports-color@2.0.0 </tspan>
<tspan x="10" y="698">  │ │ ├─┬ commander@2.9.0 </tspan>
<tspan x="10" y="714">  │ │ │ └── graceful-readlink@1.0.1 </tspan>
<tspan x="10" y="730">  │ │ ├─┬ is-my-json-valid@2.16.0 </tspan>
<tspan x="10" y="746">  │ │ │ ├── generate-function@2.0.0 </tspan>
<tspan x="10" y="762">  │ │ │ ├─┬ generate-object-property@1.2.0 </tspan>
<tspan x="10" y="778">  │ │ │ │ └── is-property@1.0.2 </tspan>
<tspan x="10" y="794">  │ │ │ ├── jsonpointer@4.0.1 </tspan>
<tspan x="10" y="810">  │ │ │ └── xtend@4.0.1 </tspan>
<tspan x="10" y="826">  │ │ └─┬ pinkie-promise@2.0.1 </tspan>
<tspan x="10" y="842">  │ │   └── pinkie@2.0.4 </tspan>
<tspan x="10" y="858">  │ ├─┬ hawk@3.1.3 </tspan>
<tspan x="10" y="874">  │ │ ├── boom@2.10.1 </tspan>
<tspan x="10" y="890">  │ │ ├── cryptiles@2.0.5 </tspan>
<tspan x="10" y="906">  │ │ ├── hoek@2.16.3 </tspan>
<tspan x="10" y="922">  │ │ └── sntp@1.0.9 </tspan>
<tspan x="10" y="938">  │ ├─┬ http-signature@1.1.1 </tspan>
<tspan x="10" y="954">  │ │ ├── assert-plus@0.2.0 </tspan>
<tspan x="10" y="970">  │ │ ├─┬ jsprim@1.4.0 </tspan>
<tspan x="10" y="986">  │ │ │ ├── assert-plus@1.0.0 </tspan>
<tspan x="10" y="1002">  │ │ │ ├── extsprintf@1.0.2 </tspan>
<tspan x="10" y="1018">  │ │ │ ├── json-schema@0.2.3 </tspan>
<tspan x="10" y="1034">  │ │ │ └── verror@1.3.6 </tspan>
<tspan x="10" y="1050">  │ │ └─┬ sshpk@1.11.0 </tspan>
<tspan x="10" y="1066">  │ │   ├── asn1@0.2.3 </tspan>
<tspan x="10" y="1082">  │ │   ├── assert-plus@1.0.0 </tspan>
<tspan x="10" y="1098">  │ │   ├── bcrypt-pbkdf@1.0.1 </tspan>
<tspan x="10" y="1114">  │ │   ├─┬ dashdash@1.14.1 </tspan>
<tspan x="10" y="1130">  │ │   │ └── assert-plus@1.0.0 </tspan>
<tspan x="10" y="1146">  │ │   ├── ecc-jsbn@0.1.1 </tspan>
<tspan x="10" y="1162">  │ │   ├─┬ getpass@0.1.6 </tspan>
<tspan x="10" y="1178">  │ │   │ └── assert-plus@1.0.0 </tspan>
<tspan x="10" y="1194">  │ │   ├── jodid25519@1.0.2 </tspan>
<tspan x="10" y="1210">  │ │   ├── jsbn@0.1.1 </tspan>
<tspan x="10" y="1226">  │ │   └── tweetnacl@0.14.5 </tspan>
<tspan x="10" y="1242">  │ ├── is-typedarray@1.0.0 </tspan>
<tspan x="10" y="1258">  │ ├── json-stringify-safe@5.0.1 </tspan>
<tspan x="10" y="1274">  │ ├─┬ mime-types@2.1.15 </tspan>
<tspan x="10" y="1290">  │ │ └── mime-db@1.27.0 </tspan>
<tspan x="10" y="1306">  │ ├── oauth-sign@0.8.2 </tspan>
<tspan x="10" y="1322">  │ ├── qs@6.3.2 </tspan>
<tspan x="10" y="1338">  │ ├── stringstream@0.0.5 </tspan>
<tspan x="10" y="1354">  │ ├─┬ tough-cookie@2.3.2 </tspan>
<tspan x="10" y="1370">  │ │ └── punycode@1.4.1 </tspan>
<tspan x="10" y="1386">  │ ├── tunnel-agent@0.4.3 </tspan>
<tspan x="10" y="1402">  │ └── uuid@3.0.1 </tspan>
<tspan x="10" y="1418">  ├─┬ solr-client@0.6.0 </tspan>
<tspan x="10" y="1434">  │ ├── duplexer@0.1.1 </tspan>
<tspan x="10" y="1450">  │ ├─┬ httperror@0.2.3 </tspan>
<tspan x="10" y="1466">  │ │ └── hnp@0.0.1 </tspan>
<tspan x="10" y="1482">  │ ├─┬ json-bigint@0.1.4 </tspan>
<tspan x="10" y="1498">  │ │ └── bignumber.js@1.1.1 </tspan>
<tspan x="10" y="1514">  │ ├─┬ JSONStream@1.0.7 </tspan>
<tspan x="10" y="1530">  │ │ ├── jsonparse@1.3.0 </tspan>
<tspan x="10" y="1546">  │ │ └── through@2.3.8 </tspan>
<tspan x="10" y="1562">  │ └─┬ request@2.63.0 </tspan>
<tspan x="10" y="1578">  │   ├── aws-sign2@0.5.0 </tspan>
<tspan x="10" y="1594">  │   ├─┬ bl@1.0.3 </tspan>
<tspan x="10" y="1610">  │   │ └─┬ readable-stream@2.0.6 </tspan>
<tspan x="10" y="1626">  │   │   ├── core-util-is@1.0.2 </tspan>
<tspan x="10" y="1642">  │   │   ├── inherits@2.0.3 </tspan>
<tspan x="10" y="1658">  │   │   ├── process-nextick-args@1.0.7 </tspan>
<tspan x="10" y="1674">  │   │   ├── string_decoder@0.10.31 </tspan>
<tspan x="10" y="1690">  │   │   └── util-deprecate@1.0.2 </tspan>
<tspan x="10" y="1706">  │   ├── form-data@1.0.1 </tspan>
<tspan x="10" y="1722">  │   ├─┬ har-validator@1.8.0 </tspan>
<tspan x="10" y="1738">  │   │ └── bluebird@2.11.0 </tspan>
<tspan x="10" y="1754">  │   ├─┬ http-signature@0.11.0 </tspan>
<tspan x="10" y="1770">  │   │ ├── asn1@0.1.11 </tspan>
<tspan x="10" y="1786">  │   │ ├── assert-plus@0.1.5 </tspan>
<tspan x="10" y="1802">  │   │ └── ctype@0.5.3 </tspan>
<tspan x="10" y="1818">  │   ├── node-uuid@1.4.8 </tspan>
<tspan x="10" y="1834">  │   └── qs@5.1.0 </tspan>
<tspan x="10" y="1850">  ├── string@3.3.3 </tspan>
<tspan x="10" y="1866">  ├── vcap_services@0.3.2 </tspan>
<tspan x="10" y="1882">  └─┬ websocket@1.0.24 </tspan>
<tspan x="10" y="1898">    ├─┬ debug@2.6.3 </tspan>
<tspan x="10" y="1914">    │ └── ms@0.7.2 </tspan>
<tspan x="10" y="1930">    ├── nan@2.5.1 </tspan>
<tspan x="10" y="1946">    ├── typedarray-to-buffer@3.1.2 </tspan>
<tspan x="10" y="1962">    └── yaeti@0.0.6</tspan>
</text>
</svg>
